<mxfile host="app.diagrams.net" agent="Mozilla/5.0 (Windows NT 10.0; Win64; x64) AppleWebKit/537.36 (KHTML, like Gecko) Chrome/130.0.0.0 Safari/537.36" version="24.8.6">
  <diagram name="Página-1" id="ttIl-u1HhAWjx9T99P7W">
    <mxGraphModel dx="880" dy="468" grid="1" gridSize="10" guides="1" tooltips="1" connect="1" arrows="1" fold="1" page="1" pageScale="1" pageWidth="827" pageHeight="1169" math="0" shadow="0">
      <root>
        <mxCell id="0" />
        <mxCell id="1" parent="0" />
        <mxCell id="pOCBwULFzFYvdQFzto_5-7" style="edgeStyle=orthogonalEdgeStyle;rounded=0;orthogonalLoop=1;jettySize=auto;html=1;" edge="1" parent="1" source="pOCBwULFzFYvdQFzto_5-1">
          <mxGeometry relative="1" as="geometry">
            <mxPoint x="380" y="140" as="targetPoint" />
          </mxGeometry>
        </mxCell>
        <mxCell id="pOCBwULFzFYvdQFzto_5-1" value="Inicio" style="ellipse;whiteSpace=wrap;html=1;" vertex="1" parent="1">
          <mxGeometry x="340" y="30" width="80" height="80" as="geometry" />
        </mxCell>
        <mxCell id="pOCBwULFzFYvdQFzto_5-8" style="edgeStyle=orthogonalEdgeStyle;rounded=0;orthogonalLoop=1;jettySize=auto;html=1;entryX=0.5;entryY=0;entryDx=0;entryDy=0;" edge="1" parent="1" source="pOCBwULFzFYvdQFzto_5-4" target="pOCBwULFzFYvdQFzto_5-5">
          <mxGeometry relative="1" as="geometry" />
        </mxCell>
        <mxCell id="pOCBwULFzFYvdQFzto_5-4" value="&quot;Bienvenidos, seleccione la operación del menú:&quot;" style="shape=document;whiteSpace=wrap;html=1;boundedLbl=1;" vertex="1" parent="1">
          <mxGeometry x="320" y="140" width="120" height="80" as="geometry" />
        </mxCell>
        <mxCell id="pOCBwULFzFYvdQFzto_5-9" style="edgeStyle=orthogonalEdgeStyle;rounded=0;orthogonalLoop=1;jettySize=auto;html=1;" edge="1" parent="1" source="pOCBwULFzFYvdQFzto_5-5">
          <mxGeometry relative="1" as="geometry">
            <mxPoint x="380" y="380" as="targetPoint" />
          </mxGeometry>
        </mxCell>
        <mxCell id="pOCBwULFzFYvdQFzto_5-5" value="Opción seleccionada" style="shape=hexagon;perimeter=hexagonPerimeter2;whiteSpace=wrap;html=1;fixedSize=1;" vertex="1" parent="1">
          <mxGeometry x="320" y="260" width="120" height="80" as="geometry" />
        </mxCell>
        <mxCell id="pOCBwULFzFYvdQFzto_5-10" value="" style="endArrow=none;html=1;rounded=0;" edge="1" parent="1">
          <mxGeometry width="50" height="50" relative="1" as="geometry">
            <mxPoint x="170" y="380" as="sourcePoint" />
            <mxPoint x="590" y="380" as="targetPoint" />
          </mxGeometry>
        </mxCell>
        <mxCell id="pOCBwULFzFYvdQFzto_5-11" value="" style="endArrow=classic;html=1;rounded=0;" edge="1" parent="1" target="pOCBwULFzFYvdQFzto_5-12">
          <mxGeometry width="50" height="50" relative="1" as="geometry">
            <mxPoint x="170" y="380" as="sourcePoint" />
            <mxPoint x="170" y="430" as="targetPoint" />
          </mxGeometry>
        </mxCell>
        <mxCell id="pOCBwULFzFYvdQFzto_5-12" value="1" style="ellipse;whiteSpace=wrap;html=1;aspect=fixed;" vertex="1" parent="1">
          <mxGeometry x="140" y="410" width="60" height="60" as="geometry" />
        </mxCell>
        <mxCell id="pOCBwULFzFYvdQFzto_5-14" style="edgeStyle=orthogonalEdgeStyle;rounded=0;orthogonalLoop=1;jettySize=auto;html=1;" edge="1" parent="1" source="pOCBwULFzFYvdQFzto_5-13" target="pOCBwULFzFYvdQFzto_5-15">
          <mxGeometry relative="1" as="geometry">
            <mxPoint x="787" y="150" as="targetPoint" />
          </mxGeometry>
        </mxCell>
        <mxCell id="pOCBwULFzFYvdQFzto_5-13" value="1" style="ellipse;whiteSpace=wrap;html=1;aspect=fixed;" vertex="1" parent="1">
          <mxGeometry x="747" y="30" width="80" height="80" as="geometry" />
        </mxCell>
        <mxCell id="pOCBwULFzFYvdQFzto_5-19" style="edgeStyle=orthogonalEdgeStyle;rounded=0;orthogonalLoop=1;jettySize=auto;html=1;" edge="1" parent="1" source="pOCBwULFzFYvdQFzto_5-15">
          <mxGeometry relative="1" as="geometry">
            <mxPoint x="787" y="250" as="targetPoint" />
          </mxGeometry>
        </mxCell>
        <mxCell id="pOCBwULFzFYvdQFzto_5-15" value="&quot;Ingresa tu primer número:&quot;" style="shape=document;whiteSpace=wrap;html=1;boundedLbl=1;" vertex="1" parent="1">
          <mxGeometry x="727" y="140" width="120" height="80" as="geometry" />
        </mxCell>
        <mxCell id="pOCBwULFzFYvdQFzto_5-22" style="edgeStyle=orthogonalEdgeStyle;rounded=0;orthogonalLoop=1;jettySize=auto;html=1;" edge="1" parent="1" source="pOCBwULFzFYvdQFzto_5-17">
          <mxGeometry relative="1" as="geometry">
            <mxPoint x="787" y="460" as="targetPoint" />
          </mxGeometry>
        </mxCell>
        <mxCell id="pOCBwULFzFYvdQFzto_5-17" value="&quot;Ingresa tu segundo número:&quot;" style="shape=document;whiteSpace=wrap;html=1;boundedLbl=1;" vertex="1" parent="1">
          <mxGeometry x="727" y="340" width="120" height="80" as="geometry" />
        </mxCell>
        <mxCell id="pOCBwULFzFYvdQFzto_5-21" style="edgeStyle=orthogonalEdgeStyle;rounded=0;orthogonalLoop=1;jettySize=auto;html=1;entryX=0.5;entryY=0;entryDx=0;entryDy=0;" edge="1" parent="1" source="pOCBwULFzFYvdQFzto_5-18" target="pOCBwULFzFYvdQFzto_5-17">
          <mxGeometry relative="1" as="geometry" />
        </mxCell>
        <mxCell id="pOCBwULFzFYvdQFzto_5-18" value="Número 1" style="shape=parallelogram;perimeter=parallelogramPerimeter;whiteSpace=wrap;html=1;fixedSize=1;" vertex="1" parent="1">
          <mxGeometry x="727" y="250" width="120" height="60" as="geometry" />
        </mxCell>
        <mxCell id="pOCBwULFzFYvdQFzto_5-24" style="edgeStyle=orthogonalEdgeStyle;rounded=0;orthogonalLoop=1;jettySize=auto;html=1;" edge="1" parent="1" source="pOCBwULFzFYvdQFzto_5-23">
          <mxGeometry relative="1" as="geometry">
            <mxPoint x="787" y="560" as="targetPoint" />
          </mxGeometry>
        </mxCell>
        <mxCell id="pOCBwULFzFYvdQFzto_5-23" value="Número 2" style="shape=parallelogram;perimeter=parallelogramPerimeter;whiteSpace=wrap;html=1;fixedSize=1;" vertex="1" parent="1">
          <mxGeometry x="727" y="460" width="120" height="60" as="geometry" />
        </mxCell>
        <mxCell id="pOCBwULFzFYvdQFzto_5-27" style="edgeStyle=orthogonalEdgeStyle;rounded=0;orthogonalLoop=1;jettySize=auto;html=1;" edge="1" parent="1" source="pOCBwULFzFYvdQFzto_5-26" target="pOCBwULFzFYvdQFzto_5-28">
          <mxGeometry relative="1" as="geometry">
            <mxPoint x="787" y="650" as="targetPoint" />
          </mxGeometry>
        </mxCell>
        <mxCell id="pOCBwULFzFYvdQFzto_5-26" value="Resultado = número 1 + número 2" style="rounded=0;whiteSpace=wrap;html=1;" vertex="1" parent="1">
          <mxGeometry x="727" y="560" width="120" height="60" as="geometry" />
        </mxCell>
        <mxCell id="pOCBwULFzFYvdQFzto_5-28" value="&quot;El resultado de la suma d {1} + {2} = &quot;&amp;nbsp; resultado" style="shape=document;whiteSpace=wrap;html=1;boundedLbl=1;" vertex="1" parent="1">
          <mxGeometry x="727" y="660" width="120" height="80" as="geometry" />
        </mxCell>
        <mxCell id="pOCBwULFzFYvdQFzto_5-29" value="2" style="ellipse;whiteSpace=wrap;html=1;aspect=fixed;" vertex="1" parent="1">
          <mxGeometry x="210" y="410" width="60" height="60" as="geometry" />
        </mxCell>
        <mxCell id="pOCBwULFzFYvdQFzto_5-30" value="" style="endArrow=classic;html=1;rounded=0;entryX=0.5;entryY=0;entryDx=0;entryDy=0;" edge="1" parent="1" target="pOCBwULFzFYvdQFzto_5-29">
          <mxGeometry width="50" height="50" relative="1" as="geometry">
            <mxPoint x="240" y="380" as="sourcePoint" />
            <mxPoint x="550" y="450" as="targetPoint" />
          </mxGeometry>
        </mxCell>
        <mxCell id="pOCBwULFzFYvdQFzto_5-32" style="edgeStyle=orthogonalEdgeStyle;rounded=0;orthogonalLoop=1;jettySize=auto;html=1;" edge="1" parent="1" source="pOCBwULFzFYvdQFzto_5-31">
          <mxGeometry relative="1" as="geometry">
            <mxPoint x="1070" y="140" as="targetPoint" />
          </mxGeometry>
        </mxCell>
        <mxCell id="pOCBwULFzFYvdQFzto_5-31" value="2" style="ellipse;whiteSpace=wrap;html=1;aspect=fixed;" vertex="1" parent="1">
          <mxGeometry x="1030" y="30" width="80" height="80" as="geometry" />
        </mxCell>
        <mxCell id="pOCBwULFzFYvdQFzto_5-34" style="edgeStyle=orthogonalEdgeStyle;rounded=0;orthogonalLoop=1;jettySize=auto;html=1;" edge="1" parent="1" source="pOCBwULFzFYvdQFzto_5-33">
          <mxGeometry relative="1" as="geometry">
            <mxPoint x="1070" y="250" as="targetPoint" />
          </mxGeometry>
        </mxCell>
        <mxCell id="pOCBwULFzFYvdQFzto_5-33" value="&quot;Cuántos números deseas sumar?&quot;" style="shape=document;whiteSpace=wrap;html=1;boundedLbl=1;" vertex="1" parent="1">
          <mxGeometry x="1010" y="140" width="120" height="80" as="geometry" />
        </mxCell>
        <mxCell id="pOCBwULFzFYvdQFzto_5-38" style="edgeStyle=orthogonalEdgeStyle;rounded=0;orthogonalLoop=1;jettySize=auto;html=1;entryX=0.5;entryY=0;entryDx=0;entryDy=0;" edge="1" parent="1" source="pOCBwULFzFYvdQFzto_5-35" target="pOCBwULFzFYvdQFzto_5-36">
          <mxGeometry relative="1" as="geometry" />
        </mxCell>
        <mxCell id="pOCBwULFzFYvdQFzto_5-35" value="Cantidad de números&amp;nbsp;&lt;br&gt;i = 0&lt;br&gt;valor = 0&lt;br&gt;resultado = 0" style="shape=parallelogram;perimeter=parallelogramPerimeter;whiteSpace=wrap;html=1;fixedSize=1;" vertex="1" parent="1">
          <mxGeometry x="990" y="250" width="160" height="70" as="geometry" />
        </mxCell>
        <mxCell id="pOCBwULFzFYvdQFzto_5-41" style="edgeStyle=orthogonalEdgeStyle;rounded=0;orthogonalLoop=1;jettySize=auto;html=1;entryX=0.5;entryY=0;entryDx=0;entryDy=0;" edge="1" parent="1" source="pOCBwULFzFYvdQFzto_5-36" target="pOCBwULFzFYvdQFzto_5-40">
          <mxGeometry relative="1" as="geometry" />
        </mxCell>
        <mxCell id="pOCBwULFzFYvdQFzto_5-36" value="&quot;Ingresa tu número {i}:&quot; = valor" style="shape=document;whiteSpace=wrap;html=1;boundedLbl=1;" vertex="1" parent="1">
          <mxGeometry x="1010" y="350" width="120" height="70" as="geometry" />
        </mxCell>
        <mxCell id="pOCBwULFzFYvdQFzto_5-43" style="edgeStyle=orthogonalEdgeStyle;rounded=0;orthogonalLoop=1;jettySize=auto;html=1;entryX=0;entryY=0.5;entryDx=0;entryDy=0;" edge="1" parent="1" source="pOCBwULFzFYvdQFzto_5-37" target="pOCBwULFzFYvdQFzto_5-36">
          <mxGeometry relative="1" as="geometry">
            <mxPoint x="900" y="370" as="targetPoint" />
            <Array as="points">
              <mxPoint x="920" y="630" />
              <mxPoint x="920" y="385" />
            </Array>
          </mxGeometry>
        </mxCell>
        <mxCell id="pOCBwULFzFYvdQFzto_5-46" style="edgeStyle=orthogonalEdgeStyle;rounded=0;orthogonalLoop=1;jettySize=auto;html=1;entryX=0.5;entryY=0;entryDx=0;entryDy=0;" edge="1" parent="1" source="pOCBwULFzFYvdQFzto_5-37" target="pOCBwULFzFYvdQFzto_5-45">
          <mxGeometry relative="1" as="geometry" />
        </mxCell>
        <mxCell id="pOCBwULFzFYvdQFzto_5-37" value="i == Cantidad de números" style="rhombus;whiteSpace=wrap;html=1;" vertex="1" parent="1">
          <mxGeometry x="1020" y="580" width="100" height="100" as="geometry" />
        </mxCell>
        <mxCell id="pOCBwULFzFYvdQFzto_5-42" style="edgeStyle=orthogonalEdgeStyle;rounded=0;orthogonalLoop=1;jettySize=auto;html=1;entryX=0.5;entryY=0;entryDx=0;entryDy=0;" edge="1" parent="1" source="pOCBwULFzFYvdQFzto_5-40" target="pOCBwULFzFYvdQFzto_5-37">
          <mxGeometry relative="1" as="geometry" />
        </mxCell>
        <mxCell id="pOCBwULFzFYvdQFzto_5-40" value="Resultado = resultado + valor&lt;br&gt;i ++" style="shape=parallelogram;perimeter=parallelogramPerimeter;whiteSpace=wrap;html=1;fixedSize=1;" vertex="1" parent="1">
          <mxGeometry x="975" y="450" width="190" height="80" as="geometry" />
        </mxCell>
        <mxCell id="pOCBwULFzFYvdQFzto_5-44" value="No" style="text;html=1;align=center;verticalAlign=middle;whiteSpace=wrap;rounded=0;" vertex="1" parent="1">
          <mxGeometry x="915" y="590" width="60" height="30" as="geometry" />
        </mxCell>
        <mxCell id="pOCBwULFzFYvdQFzto_5-45" value="Imprime resultado" style="shape=document;whiteSpace=wrap;html=1;boundedLbl=1;" vertex="1" parent="1">
          <mxGeometry x="1010" y="730" width="120" height="80" as="geometry" />
        </mxCell>
        <mxCell id="pOCBwULFzFYvdQFzto_5-47" value="Sí" style="text;html=1;align=center;verticalAlign=middle;whiteSpace=wrap;rounded=0;" vertex="1" parent="1">
          <mxGeometry x="1010" y="685" width="60" height="30" as="geometry" />
        </mxCell>
        <mxCell id="pOCBwULFzFYvdQFzto_5-48" value="3" style="ellipse;whiteSpace=wrap;html=1;aspect=fixed;" vertex="1" parent="1">
          <mxGeometry x="280" y="410" width="60" height="60" as="geometry" />
        </mxCell>
        <mxCell id="pOCBwULFzFYvdQFzto_5-49" value="" style="endArrow=classic;html=1;rounded=0;entryX=0.5;entryY=0;entryDx=0;entryDy=0;" edge="1" parent="1" target="pOCBwULFzFYvdQFzto_5-48">
          <mxGeometry width="50" height="50" relative="1" as="geometry">
            <mxPoint x="310" y="380" as="sourcePoint" />
            <mxPoint x="620" y="450" as="targetPoint" />
          </mxGeometry>
        </mxCell>
        <mxCell id="pOCBwULFzFYvdQFzto_5-50" value="4" style="ellipse;whiteSpace=wrap;html=1;aspect=fixed;" vertex="1" parent="1">
          <mxGeometry x="350" y="410" width="60" height="60" as="geometry" />
        </mxCell>
        <mxCell id="pOCBwULFzFYvdQFzto_5-51" value="" style="endArrow=classic;html=1;rounded=0;entryX=0.5;entryY=0;entryDx=0;entryDy=0;" edge="1" parent="1" target="pOCBwULFzFYvdQFzto_5-50">
          <mxGeometry width="50" height="50" relative="1" as="geometry">
            <mxPoint x="380" y="380" as="sourcePoint" />
            <mxPoint x="690" y="450" as="targetPoint" />
          </mxGeometry>
        </mxCell>
        <mxCell id="pOCBwULFzFYvdQFzto_5-52" value="5" style="ellipse;whiteSpace=wrap;html=1;aspect=fixed;" vertex="1" parent="1">
          <mxGeometry x="420" y="410" width="60" height="60" as="geometry" />
        </mxCell>
        <mxCell id="pOCBwULFzFYvdQFzto_5-53" value="" style="endArrow=classic;html=1;rounded=0;entryX=0.5;entryY=0;entryDx=0;entryDy=0;" edge="1" parent="1" target="pOCBwULFzFYvdQFzto_5-52">
          <mxGeometry width="50" height="50" relative="1" as="geometry">
            <mxPoint x="450" y="380" as="sourcePoint" />
            <mxPoint x="760" y="450" as="targetPoint" />
          </mxGeometry>
        </mxCell>
        <mxCell id="pOCBwULFzFYvdQFzto_5-54" value="6" style="ellipse;whiteSpace=wrap;html=1;aspect=fixed;" vertex="1" parent="1">
          <mxGeometry x="490" y="410" width="60" height="60" as="geometry" />
        </mxCell>
        <mxCell id="pOCBwULFzFYvdQFzto_5-55" value="" style="endArrow=classic;html=1;rounded=0;entryX=0.5;entryY=0;entryDx=0;entryDy=0;" edge="1" parent="1" target="pOCBwULFzFYvdQFzto_5-54">
          <mxGeometry width="50" height="50" relative="1" as="geometry">
            <mxPoint x="520" y="380" as="sourcePoint" />
            <mxPoint x="830" y="450" as="targetPoint" />
          </mxGeometry>
        </mxCell>
        <mxCell id="pOCBwULFzFYvdQFzto_5-56" value="7" style="ellipse;whiteSpace=wrap;html=1;aspect=fixed;" vertex="1" parent="1">
          <mxGeometry x="560" y="410" width="60" height="60" as="geometry" />
        </mxCell>
        <mxCell id="pOCBwULFzFYvdQFzto_5-57" value="" style="endArrow=classic;html=1;rounded=0;entryX=0.5;entryY=0;entryDx=0;entryDy=0;" edge="1" parent="1" target="pOCBwULFzFYvdQFzto_5-56">
          <mxGeometry width="50" height="50" relative="1" as="geometry">
            <mxPoint x="590" y="380" as="sourcePoint" />
            <mxPoint x="900" y="450" as="targetPoint" />
          </mxGeometry>
        </mxCell>
      </root>
    </mxGraphModel>
  </diagram>
</mxfile>
